<svg width="16" height="16" viewBox="0 0 16 16" fill="none" xmlns="http://www.w3.org/2000/svg">
<g clip-path="url(#clip0_835_1313)">
<path d="M10.8803 0.320312H5.12031C2.46975 0.320312 0.320312 2.46975 0.320312 5.12031V10.8803C0.320312 13.5309 2.46975 15.6803 5.12031 15.6803H10.8803C13.5309 15.6803 15.6803 13.5309 15.6803 10.8803V5.12031C15.6803 2.46975 13.5309 0.320312 10.8803 0.320312ZM14.2403 10.8803C14.2403 12.7331 12.7331 14.2403 10.8803 14.2403H5.12031C3.26751 14.2403 1.76031 12.7331 1.76031 10.8803V5.12031C1.76031 3.26751 3.26751 1.76031 5.12031 1.76031H10.8803C12.7331 1.76031 14.2403 3.26751 14.2403 5.12031V10.8803Z" fill="white"/>
<path d="M8.00016 4.1604C5.87952 4.1604 4.16016 5.87976 4.16016 8.0004C4.16016 10.121 5.87952 11.8404 8.00016 11.8404C10.1208 11.8404 11.8402 10.121 11.8402 8.0004C11.8402 5.87976 10.1208 4.1604 8.00016 4.1604ZM8.00016 10.4004C6.67728 10.4004 5.60016 9.32328 5.60016 8.0004C5.60016 6.67656 6.67728 5.6004 8.00016 5.6004C9.32304 5.6004 10.4002 6.67656 10.4002 8.0004C10.4002 9.32328 9.32304 10.4004 8.00016 10.4004Z" fill="white"/>
<path d="M12.1279 4.38395C12.4105 4.38395 12.6396 4.15487 12.6396 3.87227C12.6396 3.58968 12.4105 3.3606 12.1279 3.3606C11.8453 3.3606 11.6162 3.58968 11.6162 3.87227C11.6162 4.15487 11.8453 4.38395 12.1279 4.38395Z" fill="white"/>
</g>
<defs>
<clipPath id="clip0_835_1313">
<rect width="15.36" height="15.36" fill="white" transform="translate(0.320312 0.320312)"/>
</clipPath>
</defs>
</svg>
