<svg width="16" height="16" viewBox="0 0 16 16" fill="none" xmlns="http://www.w3.org/2000/svg">
<g clip-path="url(#clip0_835_1325)">
<path d="M3.75519 5.12036H0.320312V15.6804H3.75519V5.12036Z" fill="white"/>
<path d="M13.1112 5.2442C13.0747 5.23268 13.0401 5.2202 13.0017 5.20964C12.9556 5.19908 12.9096 5.19044 12.8625 5.18276C12.6801 5.14628 12.4804 5.12036 12.2462 5.12036C10.2436 5.12036 8.97356 6.57668 8.555 7.13924V5.12036H5.12012V15.6804H8.555V9.92036C8.555 9.92036 11.1508 6.305 12.2462 8.96036C12.2462 11.3306 12.2462 15.6804 12.2462 15.6804H15.6801V8.55428C15.6801 6.95876 14.5867 5.62916 13.1112 5.2442Z" fill="white"/>
<path d="M2.00031 3.68031C2.92815 3.68031 3.68031 2.92815 3.68031 2.00031C3.68031 1.07247 2.92815 0.320312 2.00031 0.320312C1.07247 0.320312 0.320312 1.07247 0.320312 2.00031C0.320312 2.92815 1.07247 3.68031 2.00031 3.68031Z" fill="white"/>
</g>
<defs>
<clipPath id="clip0_835_1325">
<rect width="15.36" height="15.36" fill="white" transform="translate(0.320312 0.320312)"/>
</clipPath>
</defs>
</svg>
