<svg width="48" height="48" viewBox="0 0 48 48" fill="none" xmlns="http://www.w3.org/2000/svg">
<rect y="0.00012207" width="48" height="48" rx="24" fill="#5C2D91"/>
<path d="M29.2297 26.5113C29.0572 26.6383 28.9468 26.8303 28.9253 27.0434C28.8489 27.8029 28.659 29.686 28.5418 30.8115C28.4983 31.2296 28.8267 31.5947 29.247 31.5947C29.5955 31.5947 29.8904 31.3399 29.9367 30.9944C30.0215 30.363 30.1732 29.189 30.4022 27.2674C30.4055 27.24 30.409 27.2113 30.4124 27.1815C30.4876 26.5363 29.7528 26.1262 29.2297 26.5113Z" fill="url(#paint0_linear_687_263)"/>
<path d="M25.1592 14.9349C25.1592 15.4801 25.6789 15.856 26.2214 15.9105C27.4601 16.035 28.3601 17.14 28.8216 19.9656C28.914 20.543 28.9773 21.1602 29.0173 21.8013C29.0576 22.4472 29.8239 22.7954 30.3302 22.3924C30.5223 22.2395 30.619 22.0144 30.6071 21.7693C30.5439 20.4751 30.3817 19.2337 30.1223 18.0808C29.5011 15.3308 27.7234 14.157 25.9225 14.157C25.9024 14.157 25.8821 14.1571 25.8618 14.1575C25.4532 14.1642 25.1592 14.5263 25.1592 14.9349Z" fill="url(#paint1_linear_687_263)"/>
<path d="M25.9262 14.1429C23.8388 14.1429 20.0332 15.9217 16.1915 20.0819C11.849 24.7772 10.7998 28.4641 10.7998 30.396C10.7998 32.3285 12.1 33.8575 14.45 33.8575C16.7999 33.8575 20.5695 32.3879 26.1766 28.63C30.4896 25.7395 34.6896 22.3018 36.3985 20.869C36.8788 20.4663 37.0282 19.7982 36.7765 19.2241C36.3998 18.3649 35.3322 18.1176 34.6272 18.7365C32.3591 20.7278 27.9441 24.5609 22.4664 28.0728C15.6785 32.4106 13.5195 31.6997 13.233 31.1424C12.9827 30.6685 12.4819 29.0085 15.2255 24.5991C17.9691 20.1891 22.2522 17.0711 24.435 16.2297C24.6592 16.1405 24.8772 16.0679 25.089 16.0128C25.5524 15.8922 25.9384 15.5043 25.9384 15.0255V14.1552C25.9384 14.1484 25.9329 14.1429 25.9262 14.1429Z" fill="white"/>
<defs>
<linearGradient id="paint0_linear_687_263" x1="29.3821" y1="26.9609" x2="31.2685" y2="29.7396" gradientUnits="userSpaceOnUse">
<stop offset="0.07469" stop-color="white" stop-opacity="0.5"/>
<stop offset="0.7" stop-color="white"/>
</linearGradient>
<linearGradient id="paint1_linear_687_263" x1="28.9688" y1="21.8759" x2="24.4708" y2="16.3564" gradientUnits="userSpaceOnUse">
<stop offset="0.07469" stop-color="white" stop-opacity="0.5"/>
<stop offset="0.6" stop-color="white"/>
</linearGradient>
</defs>
</svg>
