<svg width="48" height="48" viewBox="0 0 48 48" fill="none" xmlns="http://www.w3.org/2000/svg">
<rect y="0.00012207" width="48" height="48" rx="24" fill="#025AA0"/>
<path d="M32.5698 9.10237C32.0768 9.49172 31.5839 9.88107 31.1231 10.2418C30.598 9.74533 30.0765 9.26669 29.5729 8.77375C28.6656 7.88075 28.6799 7.88432 27.7547 8.72017C26.8117 9.57388 25.8437 10.4026 24.9007 11.2599C24.6435 11.492 24.4935 11.3777 24.3149 11.1813C23.7148 10.5276 23.1075 9.88107 22.5146 9.22025C22.286 8.96664 22.0895 8.95949 21.8395 9.1881C19.5463 11.2634 17.253 13.3423 14.9455 15.407C14.6455 15.6749 14.6776 15.8427 14.9312 16.1214C16.3207 17.6394 17.6888 19.1754 19.0783 20.6935C19.3498 20.9864 19.3248 21.1722 19.0212 21.4043C18.5747 21.7472 18.1532 22.1187 17.721 22.4795C17.5745 22.601 17.4709 22.7153 17.6531 22.9153C18.6604 24.019 19.657 25.1299 20.6607 26.2408C21.1287 26.7552 21.5859 27.2803 22.0717 27.7768C22.2681 27.9768 22.2038 28.1125 22.0395 28.2519C21.6252 28.6091 21.2072 28.9627 20.7857 29.3127C20.5107 29.5413 20.45 29.7449 20.725 30.045C22.8146 32.3454 24.8935 34.6529 26.9653 36.9711C27.2582 37.2997 27.4261 37.2747 27.7369 36.9782C28.812 35.9424 29.9301 34.9458 31.0195 33.9242C31.2303 33.7242 31.3696 33.7206 31.5625 33.9349C32.5483 35.0387 33.5413 36.1388 34.5344 37.2354C34.7273 37.4462 34.7165 37.6105 34.4701 37.7712C32.6341 38.9821 30.7302 40.018 28.5691 40.5717C26.9224 40.9932 25.2722 41.3147 23.5683 41.2504C22.2503 41.2003 20.9679 40.9539 19.6784 40.6538C18.0675 40.2752 16.5744 39.668 15.1741 38.8357C13.0095 37.5498 11.1914 35.8781 9.73755 33.8099C8.21231 31.6345 7.29431 29.2306 6.87281 26.6266C6.49061 24.2584 6.65492 21.9294 7.24787 19.6005C7.94084 16.8858 9.24104 14.5032 11.1092 12.4601C13.0988 10.2811 15.4706 8.6273 18.3354 7.70572C19.6534 7.28065 20.9893 6.93774 22.3503 6.81629C23.7576 6.6877 25.1793 6.71628 26.601 6.97346C28.5548 7.32709 30.423 7.89504 32.1911 8.79875C32.2947 8.85233 32.3983 8.90949 32.4983 8.97378C32.5305 8.99521 32.5412 9.04522 32.5733 9.11309L32.5698 9.10237Z" fill="white"/>
<path d="M21.9861 12.2207C22.2575 12.5243 22.5076 12.8101 22.7648 13.0923C23.6149 14.0174 24.4615 14.9426 25.3259 15.857C25.5974 16.1428 25.6188 16.3356 25.2973 16.6107C24.1471 17.6073 23.0112 18.6217 21.8896 19.6505C21.5896 19.9255 21.4253 19.7076 21.2681 19.5397C20.493 18.7075 19.7357 17.8573 18.9677 17.0143C18.6784 16.6964 18.3926 16.3785 18.0962 16.0677C17.939 15.9034 17.889 15.7891 18.1033 15.6034C18.9784 14.8533 19.8321 14.0817 20.6966 13.3245C21.1145 12.9565 21.5396 12.5993 21.9825 12.2207H21.9861Z" fill="white"/>
<path d="M27.8831 26.3834C28.9868 27.5979 30.0584 28.7731 31.13 29.9518C31.5086 30.3698 31.5122 30.4269 31.0943 30.8091C29.9905 31.8129 28.8761 32.8023 27.7723 33.8096C27.533 34.0275 27.3687 33.9739 27.1794 33.7596C26.615 33.1131 26.0506 32.4665 25.4755 31.8343C25.0112 31.3199 24.5361 30.8127 24.0503 30.3162C23.8288 30.0912 23.861 29.9304 24.0825 29.734C25.3327 28.6266 26.5757 27.5122 27.8223 26.4013C27.8402 26.3834 27.8795 26.387 27.8831 26.387V26.3834Z" fill="white"/>
<path d="M28.5374 23.2473C28.4659 23.3402 28.4123 23.4295 28.3409 23.4938C27.2264 24.5082 26.112 25.5298 24.9832 26.5335C24.551 26.9157 24.4724 26.8872 24.0795 26.455C23.0758 25.3476 22.0792 24.2367 21.0647 23.1401C20.829 22.883 20.9897 22.7508 21.1612 22.6008C21.8006 22.0507 22.4471 21.5077 23.0794 20.9469C23.6009 20.4861 24.1152 20.0182 24.6189 19.5396C24.8832 19.2895 25.0618 19.3038 25.3083 19.586C26.3299 20.754 27.3729 21.9007 28.4088 23.0544C28.4552 23.1044 28.4874 23.1687 28.5374 23.2437V23.2473Z" fill="white"/>
<path d="M31.2908 14.1996C30.4121 14.9675 29.6012 15.6748 28.7904 16.3892C28.1867 16.9179 28.351 16.9643 27.7759 16.3749C27.1366 15.7212 26.5115 15.0461 25.8899 14.3746C25.5399 13.996 25.5399 13.8281 25.9185 13.478C26.7115 12.7493 27.5188 12.0314 28.3368 11.3241C28.4082 11.2634 28.6404 11.2705 28.7011 11.3348C29.5619 12.2671 30.4049 13.2137 31.2944 14.1996H31.2908Z" fill="white"/>
<path d="M31.0875 23.0651C30.2338 22.1614 29.3944 21.2684 28.555 20.3789C28.3228 20.1325 28.3335 19.9789 28.6264 19.7467C29.4015 19.1323 30.1338 18.4608 30.8875 17.8178C31.4376 17.3499 31.5233 17.3785 31.9769 17.9357C32.5092 18.5894 33.0771 19.2109 33.6236 19.8503C34.063 20.3647 34.0558 20.4611 33.5558 20.8897C32.9592 21.397 32.352 21.8935 31.7591 22.4078C31.5304 22.6043 31.3268 22.8329 31.0911 23.0651H31.0875Z" fill="white"/>
<path d="M31.027 26.6015C31.9664 25.7514 32.8773 24.9334 33.781 24.1083C33.9632 23.9404 34.1132 23.9511 34.274 24.1261C35.0205 24.9477 35.7778 25.7586 36.5029 26.5944C36.5886 26.6944 36.5672 27.023 36.4707 27.1123C35.667 27.8732 34.8312 28.609 34.0061 29.3448C33.856 29.4806 33.7024 29.5734 33.5167 29.3627C32.6916 28.4375 31.8557 27.5195 31.0234 26.598L31.027 26.6015Z" fill="white"/>
<path d="M36.4739 35.7673C36.3632 35.6708 36.2596 35.5922 36.1739 35.4994C35.4738 34.7564 34.7844 34.0027 34.0807 33.2633C33.8271 32.999 33.7878 32.7882 34.0914 32.5239C34.9415 31.7881 35.7738 31.0308 36.6275 30.2985C36.6918 30.245 36.9133 30.27 36.974 30.3378C37.7348 31.1665 38.4743 32.0131 39.2244 32.8489C39.4208 33.0668 39.4315 33.2311 39.1922 33.4383C38.385 34.1349 37.592 34.8493 36.7918 35.553C36.7061 35.628 36.6025 35.6851 36.4775 35.7673H36.4739Z" fill="white"/>
<path d="M39.3889 26.6585C38.8888 26.0906 38.4102 25.5334 37.9137 24.9904C37.6958 24.7547 37.6922 24.5725 37.9387 24.3582C38.4709 23.8938 38.9924 23.4152 39.4925 22.9651C40.0676 23.5045 40.6677 24.0474 41.2392 24.6154C41.4607 24.8368 41.2464 25.0261 41.082 25.1726C40.5212 25.6727 39.9497 26.162 39.3889 26.6514V26.6585Z" fill="white"/>
<path d="M36.1171 12.6493C35.5063 13.2029 34.9098 13.753 34.3025 14.2888C34.2418 14.3424 34.0489 14.3567 34.0061 14.3067C33.4488 13.703 32.9059 13.0851 32.3594 12.4671C32.9773 11.9027 33.5489 11.3705 34.1347 10.8597C34.2132 10.7918 34.4419 10.7597 34.4919 10.8133C35.0419 11.4098 35.5706 12.0242 36.1207 12.6493H36.1171Z" fill="white"/>
<path d="M36.9667 16.7784C37.5096 17.3571 38.0526 17.9251 38.5741 18.5073C38.6384 18.5787 38.6384 18.8109 38.5741 18.8752C38.0704 19.3753 37.5489 19.8611 37.0095 20.3219C36.9381 20.3862 36.6845 20.354 36.6059 20.2754C36.1058 19.7896 35.6236 19.2896 35.1628 18.7716C35.095 18.6966 35.12 18.4894 35.1664 18.3716C35.2128 18.2608 35.345 18.1787 35.445 18.0929C35.9344 17.6679 36.4237 17.2464 36.9667 16.7784Z" fill="white"/>
</svg>
