<svg width="49" height="48" viewBox="0 0 49 48" fill="none" xmlns="http://www.w3.org/2000/svg">
<rect x="0.333008" y="0.00012207" width="48" height="48" rx="24" fill="#06BDE9"/>
<path d="M23.9728 25.3006L15.9629 28.627C16.5774 29.8135 17.3403 30.9153 18.2514 31.9111L23.8669 29.5805C24.1635 29.4533 24.5238 29.4533 24.8204 29.5805L30.4359 31.9111C31.3258 30.9153 32.1099 29.8135 32.7244 28.627L24.6933 25.3006C24.4602 25.2159 24.2059 25.2159 23.9728 25.3006Z" fill="url(#paint0_linear_687_281)"/>
<path d="M23.9721 31.9109L19.9883 33.5635C21.1961 34.5381 22.5523 35.3432 23.9932 35.9365C24.2051 36.0212 24.4594 36.0212 24.6925 35.9365C26.1335 35.3644 27.4896 34.5593 28.6975 33.5635L24.6925 31.9109C24.4594 31.8261 24.2051 31.8261 23.9721 31.9109Z" fill="url(#paint1_linear_687_281)"/>
<path d="M33.8893 22.5038L24.6927 18.69C24.4596 18.6053 24.2053 18.6053 23.9722 18.69L14.7756 22.5038C14.4578 22.6309 14.2883 22.9487 14.3306 23.2877C14.479 24.4106 14.7333 25.5335 15.0935 26.6141L23.8663 22.9699C24.1629 22.8428 24.5232 22.8428 24.8198 22.9699L33.5926 26.6141C33.9528 25.5547 34.2283 24.4318 34.3555 23.3089C34.3978 22.9699 34.2071 22.6309 33.8893 22.5038Z" fill="url(#paint2_linear_687_281)"/>
<path d="M34.3134 16.2323C34.2922 16.1899 34.271 16.1687 34.2286 16.1264L34.1863 16.084C34.1015 15.9992 33.9955 15.9357 33.8896 15.8933L24.693 12.0796C24.4599 11.9736 24.2056 11.9736 23.9725 12.0796L15.0514 15.7874L14.67 15.9357C14.2674 16.1052 14.1826 16.4442 14.1826 16.5925V16.8679V20.385L23.8666 16.3806C24.1632 16.2535 24.5235 16.2535 24.8201 16.3806L34.4829 20.385V16.762C34.4829 16.5713 34.4193 16.3806 34.3134 16.2323Z" fill="url(#paint3_linear_687_281)"/>
<defs>
<linearGradient id="paint0_linear_687_281" x1="15.9481" y1="28.5741" x2="32.7213" y2="28.5741" gradientUnits="userSpaceOnUse">
<stop stop-color="white"/>
<stop offset="1" stop-color="white" stop-opacity="0.85"/>
</linearGradient>
<linearGradient id="paint1_linear_687_281" x1="19.9806" y1="33.9237" x2="28.6959" y2="33.9237" gradientUnits="userSpaceOnUse">
<stop stop-color="white"/>
<stop offset="1" stop-color="white" stop-opacity="0.85"/>
</linearGradient>
<linearGradient id="paint2_linear_687_281" x1="14.3065" y1="22.6203" x2="34.3576" y2="22.6203" gradientUnits="userSpaceOnUse">
<stop stop-color="white"/>
<stop offset="1" stop-color="white" stop-opacity="0.85"/>
</linearGradient>
<linearGradient id="paint3_linear_687_281" x1="14.1647" y1="16.1926" x2="34.4792" y2="16.1926" gradientUnits="userSpaceOnUse">
<stop stop-color="white"/>
<stop offset="1" stop-color="white" stop-opacity="0.85"/>
</linearGradient>
</defs>
</svg>
