<svg width="1440" height="957" viewBox="0 0 1440 957" fill="none" xmlns="http://www.w3.org/2000/svg">
<rect width="1440" height="957" fill="#E2EDF9"/>
<mask id="mask0_819_507" style="mask-type:alpha" maskUnits="userSpaceOnUse" x="0" y="0" width="1440" height="806">
<rect width="1440" height="806" fill="#163F49"/>
</mask>
<g mask="url(#mask0_819_507)">
<path d="M1585.02 702.686C1544.52 735.047 1499.04 761.211 1450.72 779.802C1442.91 782.556 1434.38 782.556 1427.28 779.802C1378.96 760.523 1333.48 734.359 1292.98 702.686L1426.57 648.98C1434.38 646.226 1442.91 646.226 1450.72 648.98L1585.02 702.686ZM1450.72 434.157C1442.91 431.403 1434.38 431.403 1426.57 434.157L1157.98 542.257C1178.58 580.815 1204.16 616.619 1234.72 648.98L1423.01 573.241C1432.96 569.11 1445.04 569.11 1454.99 573.241L1643.28 648.98C1673.13 616.619 1699.42 580.815 1720.02 542.257L1450.72 434.157ZM1759.1 343.271L1450.72 219.335C1442.91 216.58 1434.38 216.58 1426.57 219.335L1118.18 343.271C1110.37 346.025 1104.68 352.222 1101.84 359.107C1106.11 399.042 1115.34 438.977 1128.84 476.846L1423.01 358.419C1432.96 354.287 1445.04 354.287 1454.99 358.419L1749.16 476.846C1762.66 438.977 1771.89 399.042 1776.16 359.107C1772.61 351.533 1766.92 346.025 1759.1 343.271ZM1773.32 139.465C1772.61 138.087 1771.89 137.399 1770.47 136.022L1769.05 134.645C1766.21 131.891 1762.66 129.825 1759.1 128.448L1450.72 4.51169C1442.91 1.06902 1434.38 1.06902 1426.57 4.51169L1118.18 128.448C1116.76 129.136 1115.34 129.825 1113.92 130.514C1111.79 131.891 1110.37 133.268 1108.24 134.645C1107.53 135.333 1106.11 136.71 1105.39 138.087C1104.68 139.464 1104.68 138.776 1104.68 139.465C1101.13 144.284 1099 150.481 1099 156.678V274.417L1423.01 144.284C1432.96 140.153 1445.04 140.153 1454.99 144.284L1779 274.417V156.678C1779 150.481 1776.87 144.284 1773.32 139.465Z" fill="#E8F3FF"/>
</g>
</svg>
