<svg width="49" height="48" viewBox="0 0 49 48" fill="none" xmlns="http://www.w3.org/2000/svg">
<rect x="0.333008" y="0.00012207" width="48" height="48" rx="24" fill="#2675E2"/>
<path d="M34.133 10.8751H14.533C12.2134 10.8751 10.333 12.7555 10.333 15.0751V29.0751C10.333 31.3947 12.2134 33.2751 14.533 33.2751H34.133C36.4526 33.2751 38.333 31.3947 38.333 29.0751V15.0751C38.333 12.7555 36.4526 10.8751 34.133 10.8751Z" fill="white"/>
<path d="M10.333 15.425H38.333V17.525H10.333V15.425Z" fill="#2675E2"/>
<path d="M29.2754 25.5327L25.0754 21.3327C24.6652 20.9225 24.0007 20.9225 23.5907 21.3327L19.3907 25.5327C18.9805 25.9429 18.9805 26.6073 19.3907 27.0174C19.8009 27.4274 20.4653 27.4276 20.8754 27.0174L23.2829 24.6098V36.0751C23.2829 36.6548 23.7532 37.1251 24.3329 37.1251C24.9127 37.1251 25.3829 36.6548 25.3829 36.0751V24.6098L27.7905 27.0174C27.9956 27.2225 28.2636 27.325 28.5329 27.325C28.8023 27.325 29.0703 27.2225 29.2754 27.0174C29.6856 26.6072 29.6856 25.9427 29.2754 25.5327Z" fill="#2675E2"/>
</svg>
