<svg width="48" height="48" viewBox="0 0 48 48" fill="none" xmlns="http://www.w3.org/2000/svg">
<rect y="0.00012207" width="48" height="48" rx="24" fill="#FFCD00"/>
<path d="M35.4231 30.4156C35.4231 31.0233 35.4222 31.6319 35.4214 32.2397C35.4074 32.8474 35.4074 33.4552 35.4214 34.0629C35.4214 34.6786 35.4214 35.2942 35.4214 35.9098C35.4091 36.5175 35.4065 37.1262 35.4231 37.7339C35.4205 38.1029 35.4135 38.4711 35.4196 38.8392C35.4214 38.9634 35.3794 38.9896 35.264 38.9888C34.769 38.9861 34.2741 38.9922 33.7791 38.9949C33.1828 38.9826 32.5864 38.9791 31.9909 38.9966C31.4015 38.98 30.813 38.9783 30.2236 38.9975C29.6281 38.9783 29.0326 38.9809 28.4371 38.9966C27.8477 38.9809 27.2583 38.9783 26.6698 38.9984C26.0743 38.9791 25.4797 38.98 24.8842 38.9984C24.683 38.9949 24.4819 38.9861 24.2799 38.9888C23.8925 38.9931 23.5043 38.9721 23.1169 39.0001C22.5214 38.98 21.9267 38.9818 21.3312 38.9992C20.7419 38.9809 20.1533 38.9809 19.564 38.9992C18.9685 38.9818 18.3738 38.9818 17.7783 38.9992C17.1889 38.98 16.5995 38.9818 16.0102 38.9992C15.8038 38.9957 15.5974 38.9957 15.3919 38.9888C15.0019 38.9756 14.6084 39.0325 14.2236 38.9267C14.0837 38.8707 13.9394 38.8235 13.8039 38.7579C13.3457 38.5375 13.0265 38.1746 12.7887 37.7339C12.6234 37.3308 12.577 36.9093 12.5858 36.4782C12.5902 36.2823 12.5797 36.0856 12.5762 35.8897C12.5919 35.2811 12.5875 34.6733 12.5788 34.0647C12.5937 33.4569 12.5928 32.8492 12.5788 32.2414C12.5788 31.6337 12.5779 31.0251 12.577 30.4173C12.5937 29.8017 12.5928 29.1861 12.577 28.5696C12.577 27.9618 12.577 27.3541 12.577 26.7464C12.5919 26.1386 12.5919 25.53 12.577 24.9222C12.5779 24.3171 12.5797 23.7111 12.5805 23.106C12.5893 23.0946 12.6042 23.0833 12.605 23.0719C12.6339 22.6277 12.7712 22.2105 12.9513 21.8092C13.0388 21.6142 13.1638 21.4367 13.2722 21.2513C13.5617 20.8674 13.873 20.5036 14.221 20.1713C14.2298 20.1643 14.2385 20.1564 14.2481 20.1495C14.5157 19.9098 14.7824 19.6694 15.05 19.4298C15.0789 19.4105 15.1086 19.3922 15.1357 19.3703C15.3569 19.1919 15.5808 19.0162 15.7977 18.8325C15.8668 18.7739 15.9866 18.7801 16.011 18.6664C16.1842 18.5728 16.3293 18.4399 16.485 18.321C16.7946 18.0849 17.119 17.868 17.4075 17.6057C17.4198 17.596 17.4312 17.5873 17.4434 17.5777C17.5728 17.5007 17.6856 17.4019 17.8002 17.3048C18.1202 17.06 18.4412 16.816 18.7595 16.5685C19.0297 16.3596 19.2964 16.1462 19.5648 15.9346C19.6523 15.8742 19.7397 15.8148 19.8272 15.7544C19.8403 15.7396 19.8525 15.7229 19.8674 15.709C20.128 15.451 20.4559 15.277 20.7235 15.0269C20.7856 14.9692 20.8337 14.8773 20.9028 14.8537C21.0803 14.7917 21.1887 14.6474 21.3304 14.5442C21.5927 14.3413 21.8708 14.1594 22.1165 13.9347C22.4575 13.6793 22.8056 13.4327 23.1195 13.1433C23.2393 13.0532 23.3609 12.9658 23.478 12.8731C23.7876 12.6247 24.1085 12.3895 24.3962 12.1149C24.4207 12.1088 24.4487 12.1132 24.4644 12.0852C24.6008 11.9672 24.7679 11.8858 24.8824 11.7424C24.9008 11.7363 24.9235 11.7354 24.9375 11.7241C25.5251 11.2571 26.1119 10.7901 26.6987 10.3223C26.7126 10.3109 26.7258 10.2996 26.7398 10.2882C27.2758 9.86758 27.8127 9.4461 28.3802 9.00012V10.2611C28.3619 10.8688 28.3662 11.4766 28.3776 12.0843C28.3776 12.7008 28.3776 13.3164 28.3785 13.9329C28.3636 14.5407 28.3645 15.1476 28.3785 15.7553C28.3785 16.3639 28.3794 16.9725 28.3802 17.5803C28.3636 18.1959 28.3636 18.8107 28.3802 19.4263C28.3802 20.0533 28.3802 20.6811 28.3794 21.3081C28.3776 21.3737 28.3741 21.4393 28.3741 21.5049C28.3741 23.7557 28.3732 26.0074 28.3759 28.2583C28.3759 28.3763 28.3453 28.4489 28.2421 28.5154C27.8276 28.7847 27.4201 29.0637 27.0126 29.3417C26.1757 29.9119 25.3406 30.4829 24.5046 31.0548C24.2414 31.2349 23.9861 31.4256 23.7168 31.5961C23.3556 31.8252 23.0049 32.0718 22.6569 32.3201C22.4593 32.4618 22.2599 32.6043 22.0605 32.7399C21.6793 32.9987 21.291 33.2488 20.9071 33.5033C20.253 33.9361 19.6138 34.3935 18.9545 34.8176C18.6108 35.0388 18.2907 35.2924 17.9357 35.5014C17.6305 35.6807 17.3568 35.9185 17.0578 36.1162C16.757 36.3147 16.4483 36.5018 16.1614 36.723C15.9551 36.8822 15.7303 37.0186 15.5143 37.1646C15.837 37.0982 16.1475 37.0072 16.4535 36.8988C16.8995 36.7414 17.3516 36.605 17.8011 36.4589C18.6099 36.1966 19.4179 35.9334 20.2268 35.6711C20.9412 35.4393 21.6557 35.2085 22.3701 34.9759C22.9971 34.7721 23.6241 34.5675 24.2502 34.362C24.5685 34.2571 24.8912 34.1635 25.2007 34.0367C25.4132 33.9501 25.6344 33.8802 25.8487 33.8155C26.0489 33.7543 26.2544 33.6878 26.4573 33.6301C26.8386 33.5216 27.2137 33.3852 27.5906 33.2619C27.9334 33.15 28.2823 33.0459 28.6277 32.9375C29.6193 32.6262 30.604 32.2922 31.5947 31.9782C31.7416 31.9319 31.7827 31.875 31.7827 31.722C31.7784 28.2522 31.7792 24.7814 31.7801 21.3116C31.8501 21.3064 31.92 21.3011 31.9891 21.2959C31.9987 21.295 32.0084 21.2941 32.0171 21.2924C32.3398 21.2959 32.6616 21.3029 32.9842 21.3002C33.2405 21.2985 33.4976 21.3195 33.7538 21.2871C33.8526 21.3221 33.954 21.302 34.0537 21.3029C34.463 21.3055 34.8722 21.3072 35.2815 21.302C35.3881 21.3002 35.4179 21.3335 35.417 21.4384C35.4117 21.9281 35.4144 22.4187 35.4152 22.9084C35.4152 22.9635 35.4214 23.0185 35.424 23.0745C35.3444 23.1698 35.4222 23.2678 35.4205 23.3648C35.4126 23.8283 35.417 24.2926 35.417 24.7561C35.417 24.8112 35.4214 24.8671 35.4231 24.9222C35.4082 25.53 35.4074 26.1377 35.4231 26.7455C35.4231 27.3532 35.4231 27.9618 35.4231 28.5696C35.4065 29.1852 35.4065 29.8008 35.4231 30.4165V30.4156ZM22.8851 23.7155C23.0574 23.719 23.2244 23.6945 23.3888 23.6403C23.8916 23.4733 24.3114 23.1847 24.6419 22.7737C25.0914 22.2149 25.3948 21.6028 25.2759 20.856C25.2199 20.5054 24.9699 20.1617 24.6061 20.0419C24.2624 19.9282 23.9275 19.9816 23.6031 20.0961C23.0172 20.3025 22.5747 20.7047 22.2424 21.2145C21.9434 21.6745 21.737 22.1694 21.8078 22.7466C21.876 23.2975 22.2783 23.7347 22.8851 23.7155Z" fill="white"/>
<path d="M31.7775 21.3098C31.7775 24.7796 31.7757 28.2504 31.7801 31.7202C31.7801 31.8724 31.739 31.9292 31.5921 31.9764C30.6013 32.2903 29.6167 32.6244 28.6251 32.9357C28.2797 33.0441 27.9308 33.1482 27.588 33.2601C27.2111 33.3834 26.8368 33.5198 26.4547 33.6283C26.2509 33.686 26.0463 33.7533 25.8461 33.8136C25.6327 33.8784 25.4106 33.9483 25.1981 34.0349C24.8885 34.1608 24.5658 34.2552 24.2475 34.3602C23.6214 34.5657 22.9944 34.7703 22.3675 34.9741C21.653 35.2067 20.9386 35.4375 20.2242 35.6692C19.4153 35.9316 18.6073 36.1948 17.7984 36.4571C17.349 36.6032 16.896 36.7405 16.4509 36.897C16.1448 37.0045 15.8344 37.0964 15.5117 37.1628C15.7277 37.0168 15.9524 36.8804 16.1588 36.7212C16.4456 36.5009 16.7543 36.3128 17.0551 36.1143C17.3551 35.9167 17.6279 35.6789 17.9331 35.4996C18.2881 35.2915 18.6082 35.037 18.9518 34.8158C19.612 34.3917 20.2504 33.9343 20.9045 33.5015C21.2893 33.247 21.6775 32.9969 22.0579 32.7381C22.2582 32.6025 22.4567 32.46 22.6543 32.3183C23.0023 32.0691 23.353 31.8234 23.7141 31.5943C23.9835 31.4229 24.2388 31.2323 24.502 31.053C25.338 30.482 26.1731 29.9101 27.01 29.3399C27.4183 29.0619 27.8258 28.7829 28.2394 28.5136C28.3426 28.4462 28.3741 28.3737 28.3732 28.2565C28.3697 26.0056 28.3706 23.7539 28.3715 21.503C28.3715 21.4375 28.375 21.3719 28.3767 21.3063C28.4825 21.3054 28.5883 21.3037 28.695 21.3028C29.2048 21.3002 29.7147 21.2975 30.2236 21.2949C30.2839 21.2975 30.3434 21.3019 30.4037 21.3019C30.8611 21.3045 31.3184 21.3072 31.7749 21.3089L31.7775 21.3098Z" fill="#DBAA00"/>
<path d="M22.8855 23.7153C22.2787 23.7337 21.8764 23.2965 21.8082 22.7455C21.7365 22.1684 21.9437 21.6726 22.2428 21.2135C22.5751 20.7028 23.0167 20.3014 23.6035 20.0951C23.9279 19.9805 24.2628 19.9272 24.6065 20.0409C24.9702 20.1607 25.2203 20.5043 25.2763 20.855C25.3961 21.6018 25.0918 22.2139 24.6423 22.7727C24.3118 23.1837 23.8912 23.4722 23.3892 23.6392C23.2248 23.6943 23.0578 23.7179 22.8855 23.7153Z" fill="#241F20"/>
</svg>
