<svg width="17" height="13" viewBox="0 0 17 13" fill="none" xmlns="http://www.w3.org/2000/svg">
<path d="M13.6568 0H3.18526C2.76679 -9.14025e-08 2.35242 0.0824592 1.96583 0.242665C1.57924 0.402871 1.228 0.637684 0.932198 0.933686C0.636391 1.22969 0.40181 1.58108 0.24186 1.96777C0.0819091 2.35447 -0.000275888 2.7689 6.9579e-07 3.18737V8.85052C-0.000275888 9.269 0.0819091 9.68342 0.24186 10.0701C0.40181 10.4568 0.636391 10.8082 0.932198 11.1042C1.228 11.4002 1.57924 11.635 1.96583 11.7952C2.35242 11.9554 2.76679 12.0379 3.18526 12.0379H13.6568C14.0753 12.0379 14.4897 11.9554 14.8763 11.7952C15.2629 11.635 15.6141 11.4002 15.9099 11.1042C16.2057 10.8082 16.4403 10.4568 16.6002 10.0701C16.7602 9.68342 16.8424 9.269 16.8421 8.85052V3.18737C16.8424 2.7689 16.7602 2.35447 16.6002 1.96777C16.4403 1.58108 16.2057 1.22969 15.9099 0.933686C15.6141 0.637684 15.2629 0.402871 14.8763 0.242665C14.4897 0.0824592 14.0753 -9.14025e-08 13.6568 0ZM6.20211 8.6V3.43789L10.64 6.01895L6.20211 8.6Z" fill="white"/>
</svg>
